<svg xmlns="http://www.w3.org/2000/svg" width="140.032" height="140.037" viewBox="0 0 140.032 140.037">
  <g id="noun-sad-5604176" transform="translate(-17.651 -17.718)">
    <g id="_32_Sad" data-name="32 Sad" transform="translate(17.651 17.718)">
      <path id="Path_6" data-name="Path 6" d="M237.57,112.87a27.82,27.82,0,1,0,27.82,27.82A27.82,27.82,0,0,0,237.57,112.87ZM224.322,137.6a1.763,1.763,0,1,1-3.526,0v-1.992a1.763,1.763,0,1,1,3.526,0Zm17.363,9.7a1.763,1.763,0,0,1-2.394-.693,1.963,1.963,0,0,0-3.443,0,1.763,1.763,0,1,1-3.088-1.7,5.491,5.491,0,0,1,9.622,0,1.763,1.763,0,0,1-.7,2.4Zm12.66-9.7a1.763,1.763,0,1,1-3.526,0v-1.992a1.763,1.763,0,1,1,3.526,0Z" transform="translate(-153.312 -84.915)"/>
      <path id="Path_7" data-name="Path 7" d="M52.128,317.4,21.279,348.249A12.385,12.385,0,1,0,38.8,365.761L69.644,334.91A59.641,59.641,0,0,1,52.128,317.4Z" transform="translate(-17.651 -229.354)"/>
      <path id="Path_8" data-name="Path 8" d="M209.86,34.036a55.8,55.8,0,1,0,0,78.914A55.863,55.863,0,0,0,209.86,34.036Zm-9.44,69.475a42.451,42.451,0,1,1,0-60.035A42.5,42.5,0,0,1,200.42,103.511Z" transform="translate(-86.145 -17.718)"/>
    </g>
  </g>
</svg>
